<?xml version="1.0" encoding="UTF-8" standalone="no"?>
<!DOCTYPE svg PUBLIC "-//W3C//DTD SVG 1.1//EN"
 "http://www.w3.org/Graphics/SVG/1.1/DTD/svg11.dtd">
<!-- Generated by graphviz version 12.2.1 (20241206.2353)
 -->
<!-- Title: Circuit_Half&#45;Adder Pages: 1 -->
<svg width="701pt" height="329pt"
 viewBox="0.00 0.00 700.70 328.50" xmlns="http://www.w3.org/2000/svg" xmlns:xlink="http://www.w3.org/1999/xlink">
<g id="graph0" class="graph" transform="scale(1 1) rotate(0) translate(4 324.5)">
<title>Circuit_Half&#45;Adder</title>
<polygon fill="white" stroke="none" points="-4,4 -4,-324.5 696.7,-324.5 696.7,4 -4,4"/>
<text text-anchor="middle" x="346.35" y="-7.2" font-family="Times New Roman,serif" font-size="14.00">Half&#45;Adder</text>
<g id="clust3" class="cluster">
<title>cluster_cluster__comp_XOR</title>
<path fill="#f0f0f0" stroke="#000000" d="M76,-181.5C76,-181.5 472.71,-181.5 472.71,-181.5 478.71,-181.5 484.71,-187.5 484.71,-193.5 484.71,-193.5 484.71,-300.5 484.71,-300.5 484.71,-306.5 478.71,-312.5 472.71,-312.5 472.71,-312.5 76,-312.5 76,-312.5 70,-312.5 64,-306.5 64,-300.5 64,-300.5 64,-193.5 64,-193.5 64,-187.5 70,-181.5 76,-181.5"/>
<text text-anchor="middle" x="274.36" y="-295.2" font-family="Times New Roman,serif" font-size="14.00">Circuit XOR</text>
</g>
<g id="clust6" class="cluster">
<title>cluster_cluster__comp_AND</title>
<path fill="#f0f0f0" stroke="#000000" d="M76,-32.5C76,-32.5 568.42,-32.5 568.42,-32.5 574.42,-32.5 580.42,-38.5 580.42,-44.5 580.42,-44.5 580.42,-161.5 580.42,-161.5 580.42,-167.5 574.42,-173.5 568.42,-173.5 568.42,-173.5 76,-173.5 76,-173.5 70,-173.5 64,-167.5 64,-161.5 64,-161.5 64,-44.5 64,-44.5 64,-38.5 70,-32.5 76,-32.5"/>
<text text-anchor="middle" x="322.21" y="-156.2" font-family="Times New Roman,serif" font-size="14.00">Circuit AND</text>
</g>
<g id="clust9" class="cluster">
<title>cluster_cluster__comp_AND_comp_NOT</title>
<path fill="#f0f0f0" stroke="#000000" d="M245.86,-40.5C245.86,-40.5 472.71,-40.5 472.71,-40.5 478.71,-40.5 484.71,-46.5 484.71,-52.5 484.71,-52.5 484.71,-128.5 484.71,-128.5 484.71,-134.5 478.71,-140.5 472.71,-140.5 472.71,-140.5 245.86,-140.5 245.86,-140.5 239.86,-140.5 233.86,-134.5 233.86,-128.5 233.86,-128.5 233.86,-52.5 233.86,-52.5 233.86,-46.5 239.86,-40.5 245.86,-40.5"/>
<text text-anchor="middle" x="359.28" y="-123.2" font-family="Times New Roman,serif" font-size="14.00">Circuit NOT</text>
</g>
<!-- _in_A -->
<g id="node1" class="node">
<title>_in_A</title>
<ellipse fill="#aaffaa" stroke="black" cx="18" cy="-226.5" rx="18" ry="18"/>
<text text-anchor="middle" x="18" y="-221.45" font-family="Times New Roman,serif" font-size="14.00">A</text>
</g>
<!-- _comp_XOR_in_A -->
<g id="node5" class="node">
<title>_comp_XOR_in_A</title>
<ellipse fill="#aaffaa" stroke="black" cx="90" cy="-261.5" rx="18" ry="18"/>
<text text-anchor="middle" x="90" y="-256.45" font-family="Times New Roman,serif" font-size="14.00">A</text>
</g>
<!-- _in_A&#45;&gt;_comp_XOR_in_A -->
<g id="edge17" class="edge">
<title>_in_A&#45;&gt;_comp_XOR_in_A</title>
<path fill="none" stroke="black" stroke-width="2" d="M34.54,-234.27C42.6,-238.3 52.69,-243.34 61.98,-247.99"/>
<polygon fill="black" stroke="black" stroke-width="2" points="60.29,-251.06 70.8,-252.4 63.42,-244.8 60.29,-251.06"/>
</g>
<!-- _comp_AND_in_A -->
<g id="node12" class="node">
<title>_comp_AND_in_A</title>
<ellipse fill="#aaffaa" stroke="black" cx="90" cy="-122.5" rx="18" ry="18"/>
<text text-anchor="middle" x="90" y="-117.45" font-family="Times New Roman,serif" font-size="14.00">A</text>
</g>
<!-- _in_A&#45;&gt;_comp_AND_in_A -->
<g id="edge18" class="edge">
<title>_in_A&#45;&gt;_comp_AND_in_A</title>
<path fill="none" stroke="black" stroke-width="2" d="M28.73,-212.04C39.9,-195.45 58.42,-167.93 71.99,-147.78"/>
<polygon fill="black" stroke="black" stroke-width="2" points="74.75,-149.93 77.43,-139.68 68.95,-146.03 74.75,-149.93"/>
</g>
<!-- _in_B -->
<g id="node2" class="node">
<title>_in_B</title>
<ellipse fill="#aaffaa" stroke="black" cx="18" cy="-137.5" rx="18" ry="18"/>
<text text-anchor="middle" x="18" y="-132.45" font-family="Times New Roman,serif" font-size="14.00">B</text>
</g>
<!-- _comp_XOR_in_B -->
<g id="node6" class="node">
<title>_comp_XOR_in_B</title>
<ellipse fill="#aaffaa" stroke="black" cx="90" cy="-207.5" rx="18" ry="18"/>
<text text-anchor="middle" x="90" y="-202.45" font-family="Times New Roman,serif" font-size="14.00">B</text>
</g>
<!-- _in_B&#45;&gt;_comp_XOR_in_B -->
<g id="edge19" class="edge">
<title>_in_B&#45;&gt;_comp_XOR_in_B</title>
<path fill="none" stroke="black" stroke-width="2" d="M31.51,-150.01C41.47,-159.97 55.63,-174.13 67.41,-185.91"/>
<polygon fill="black" stroke="black" stroke-width="2" points="64.91,-188.36 74.45,-192.95 69.86,-183.41 64.91,-188.36"/>
</g>
<!-- _comp_AND_in_B -->
<g id="node13" class="node">
<title>_comp_AND_in_B</title>
<ellipse fill="#aaffaa" stroke="black" cx="90" cy="-68.5" rx="18" ry="18"/>
<text text-anchor="middle" x="90" y="-63.45" font-family="Times New Roman,serif" font-size="14.00">B</text>
</g>
<!-- _in_B&#45;&gt;_comp_AND_in_B -->
<g id="edge20" class="edge">
<title>_in_B&#45;&gt;_comp_AND_in_B</title>
<path fill="none" stroke="black" stroke-width="2" d="M31.51,-125.16C41.47,-115.35 55.63,-101.39 67.41,-89.78"/>
<polygon fill="black" stroke="black" stroke-width="2" points="69.77,-92.37 74.44,-82.85 64.86,-87.38 69.77,-92.37"/>
</g>
<!-- _out_SUM -->
<g id="node3" class="node">
<title>_out_SUM</title>
<ellipse fill="#ffaaaa" stroke="black" cx="650.56" cy="-234.5" rx="31.39" ry="31.39"/>
<text text-anchor="middle" x="650.56" y="-229.45" font-family="Times New Roman,serif" font-size="14.00">SUM</text>
</g>
<!-- _out_CARRY -->
<g id="node4" class="node">
<title>_out_CARRY</title>
<ellipse fill="#ffaaaa" stroke="black" cx="650.56" cy="-78.5" rx="42.14" ry="42.14"/>
<text text-anchor="middle" x="650.56" y="-73.45" font-family="Times New Roman,serif" font-size="14.00">CARRY</text>
</g>
<!-- _comp_XOR_comp_NAND_A -->
<g id="node8" class="node">
<title>_comp_XOR_comp_NAND_A</title>
<polygon fill="#ccccff" stroke="black" points="199,-252.5 144,-252.5 144,-216.5 199,-216.5 199,-252.5"/>
<text text-anchor="middle" x="171.5" y="-229.45" font-family="Times New Roman,serif" font-size="14.00">NAND</text>
</g>
<!-- _comp_XOR_in_A&#45;&gt;_comp_XOR_comp_NAND_A -->
<g id="edge1" class="edge">
<title>_comp_XOR_in_A&#45;&gt;_comp_XOR_comp_NAND_A</title>
<path fill="none" stroke="black" d="M107.47,-255.91C114.91,-253.38 124.02,-250.28 132.99,-247.24"/>
<polygon fill="black" stroke="black" points="133.95,-250.61 142.29,-244.08 131.69,-243.98 133.95,-250.61"/>
</g>
<!-- _comp_XOR_comp_NAND_B1 -->
<g id="node9" class="node">
<title>_comp_XOR_comp_NAND_B1</title>
<polygon fill="#ccccff" stroke="black" points="290,-279.5 235,-279.5 235,-243.5 290,-243.5 290,-279.5"/>
<text text-anchor="middle" x="262.5" y="-256.45" font-family="Times New Roman,serif" font-size="14.00">NAND</text>
</g>
<!-- _comp_XOR_in_A&#45;&gt;_comp_XOR_comp_NAND_B1 -->
<g id="edge2" class="edge">
<title>_comp_XOR_in_A&#45;&gt;_comp_XOR_comp_NAND_B1</title>
<path fill="none" stroke="black" d="M108.29,-261.5C135.18,-261.5 187.67,-261.5 223.65,-261.5"/>
<polygon fill="black" stroke="black" points="223.18,-265 233.18,-261.5 223.18,-258 223.18,-265"/>
</g>
<!-- _comp_XOR_in_B&#45;&gt;_comp_XOR_comp_NAND_A -->
<g id="edge3" class="edge">
<title>_comp_XOR_in_B&#45;&gt;_comp_XOR_comp_NAND_A</title>
<path fill="none" stroke="black" d="M107.47,-213.09C114.91,-215.62 124.02,-218.72 132.99,-221.76"/>
<polygon fill="black" stroke="black" points="131.69,-225.02 142.29,-224.92 133.95,-218.39 131.69,-225.02"/>
</g>
<!-- _comp_XOR_comp_NAND_B2 -->
<g id="node10" class="node">
<title>_comp_XOR_comp_NAND_B2</title>
<polygon fill="#ccccff" stroke="black" points="290,-225.5 235,-225.5 235,-189.5 290,-189.5 290,-225.5"/>
<text text-anchor="middle" x="262.5" y="-202.45" font-family="Times New Roman,serif" font-size="14.00">NAND</text>
</g>
<!-- _comp_XOR_in_B&#45;&gt;_comp_XOR_comp_NAND_B2 -->
<g id="edge4" class="edge">
<title>_comp_XOR_in_B&#45;&gt;_comp_XOR_comp_NAND_B2</title>
<path fill="none" stroke="black" d="M108.29,-207.5C135.18,-207.5 187.67,-207.5 223.65,-207.5"/>
<polygon fill="black" stroke="black" points="223.18,-211 233.18,-207.5 223.18,-204 223.18,-211"/>
</g>
<!-- _comp_XOR_out_OUT -->
<g id="node7" class="node">
<title>_comp_XOR_out_OUT</title>
<ellipse fill="#ffaaaa" stroke="black" cx="446.86" cy="-234.5" rx="29.86" ry="29.86"/>
<text text-anchor="middle" x="446.86" y="-229.45" font-family="Times New Roman,serif" font-size="14.00">OUT</text>
</g>
<!-- _comp_XOR_out_OUT&#45;&gt;_out_SUM -->
<g id="edge21" class="edge">
<title>_comp_XOR_out_OUT&#45;&gt;_out_SUM</title>
<path fill="none" stroke="black" stroke-width="2" d="M477.19,-234.5C511,-234.5 566.93,-234.5 605.87,-234.5"/>
<polygon fill="black" stroke="black" stroke-width="2" points="605.85,-238 615.85,-234.5 605.85,-231 605.85,-238"/>
</g>
<!-- _comp_XOR_comp_NAND_A&#45;&gt;_comp_XOR_comp_NAND_B1 -->
<g id="edge6" class="edge">
<title>_comp_XOR_comp_NAND_A&#45;&gt;_comp_XOR_comp_NAND_B1</title>
<path fill="none" stroke="black" d="M199.2,-242.6C206.88,-244.93 215.4,-247.51 223.61,-250"/>
<polygon fill="black" stroke="black" points="222.47,-253.32 233.06,-252.87 224.51,-246.62 222.47,-253.32"/>
</g>
<!-- _comp_XOR_comp_NAND_A&#45;&gt;_comp_XOR_comp_NAND_B2 -->
<g id="edge7" class="edge">
<title>_comp_XOR_comp_NAND_A&#45;&gt;_comp_XOR_comp_NAND_B2</title>
<path fill="none" stroke="black" d="M199.2,-226.4C206.88,-224.07 215.4,-221.49 223.61,-219"/>
<polygon fill="black" stroke="black" points="224.51,-222.38 233.06,-216.13 222.47,-215.68 224.51,-222.38"/>
</g>
<!-- _comp_XOR_comp_NAND_OUT -->
<g id="node11" class="node">
<title>_comp_XOR_comp_NAND_OUT</title>
<polygon fill="#ccccff" stroke="black" points="381,-252.5 326,-252.5 326,-216.5 381,-216.5 381,-252.5"/>
<text text-anchor="middle" x="353.5" y="-229.45" font-family="Times New Roman,serif" font-size="14.00">NAND</text>
</g>
<!-- _comp_XOR_comp_NAND_B1&#45;&gt;_comp_XOR_comp_NAND_OUT -->
<g id="edge8" class="edge">
<title>_comp_XOR_comp_NAND_B1&#45;&gt;_comp_XOR_comp_NAND_OUT</title>
<path fill="none" stroke="black" d="M290.2,-253.4C297.88,-251.07 306.4,-248.49 314.61,-246"/>
<polygon fill="black" stroke="black" points="315.51,-249.38 324.06,-243.13 313.47,-242.68 315.51,-249.38"/>
</g>
<!-- _comp_XOR_comp_NAND_B2&#45;&gt;_comp_XOR_comp_NAND_OUT -->
<g id="edge9" class="edge">
<title>_comp_XOR_comp_NAND_B2&#45;&gt;_comp_XOR_comp_NAND_OUT</title>
<path fill="none" stroke="black" d="M290.2,-215.6C297.88,-217.93 306.4,-220.51 314.61,-223"/>
<polygon fill="black" stroke="black" points="313.47,-226.32 324.06,-225.87 315.51,-219.62 313.47,-226.32"/>
</g>
<!-- _comp_XOR_comp_NAND_OUT&#45;&gt;_comp_XOR_out_OUT -->
<g id="edge5" class="edge">
<title>_comp_XOR_comp_NAND_OUT&#45;&gt;_comp_XOR_out_OUT</title>
<path fill="none" stroke="black" d="M381.42,-234.5C388.84,-234.5 397.07,-234.5 405.09,-234.5"/>
<polygon fill="black" stroke="black" points="405.07,-238 415.07,-234.5 405.07,-231 405.07,-238"/>
</g>
<!-- _comp_AND_comp_NAND -->
<g id="node15" class="node">
<title>_comp_AND_comp_NAND</title>
<polygon fill="#ccccff" stroke="black" points="199,-96.5 144,-96.5 144,-60.5 199,-60.5 199,-96.5"/>
<text text-anchor="middle" x="171.5" y="-73.45" font-family="Times New Roman,serif" font-size="14.00">NAND</text>
</g>
<!-- _comp_AND_in_A&#45;&gt;_comp_AND_comp_NAND -->
<g id="edge13" class="edge">
<title>_comp_AND_in_A&#45;&gt;_comp_AND_comp_NAND</title>
<path fill="none" stroke="black" d="M106.33,-114.02C114.16,-109.68 124.07,-104.2 133.73,-98.85"/>
<polygon fill="black" stroke="black" points="135.25,-102.01 142.3,-94.11 131.86,-95.89 135.25,-102.01"/>
</g>
<!-- _comp_AND_in_B&#45;&gt;_comp_AND_comp_NAND -->
<g id="edge14" class="edge">
<title>_comp_AND_in_B&#45;&gt;_comp_AND_comp_NAND</title>
<path fill="none" stroke="black" d="M108.25,-70.67C115.35,-71.56 123.87,-72.63 132.3,-73.69"/>
<polygon fill="black" stroke="black" points="131.73,-77.15 142.09,-74.93 132.6,-70.21 131.73,-77.15"/>
</g>
<!-- _comp_AND_out_OUT -->
<g id="node14" class="node">
<title>_comp_AND_out_OUT</title>
<ellipse fill="#ffaaaa" stroke="black" cx="542.57" cy="-78.5" rx="29.86" ry="29.86"/>
<text text-anchor="middle" x="542.57" y="-73.45" font-family="Times New Roman,serif" font-size="14.00">OUT</text>
</g>
<!-- _comp_AND_out_OUT&#45;&gt;_out_CARRY -->
<g id="edge22" class="edge">
<title>_comp_AND_out_OUT&#45;&gt;_out_CARRY</title>
<path fill="none" stroke="black" stroke-width="2" d="M572.81,-78.5C579.8,-78.5 587.48,-78.5 595.2,-78.5"/>
<polygon fill="black" stroke="black" stroke-width="2" points="595.09,-82 605.09,-78.5 595.09,-75 595.09,-82"/>
</g>
<!-- _comp_AND_comp_NOT_in_IN -->
<g id="node16" class="node">
<title>_comp_AND_comp_NOT_in_IN</title>
<ellipse fill="#aaffaa" stroke="black" cx="262.5" cy="-78.5" rx="20.64" ry="20.64"/>
<text text-anchor="middle" x="262.5" y="-73.45" font-family="Times New Roman,serif" font-size="14.00">IN</text>
</g>
<!-- _comp_AND_comp_NAND&#45;&gt;_comp_AND_comp_NOT_in_IN -->
<g id="edge16" class="edge">
<title>_comp_AND_comp_NAND&#45;&gt;_comp_AND_comp_NOT_in_IN</title>
<path fill="none" stroke="black" d="M199.2,-78.5C208.99,-78.5 220.16,-78.5 230.31,-78.5"/>
<polygon fill="black" stroke="black" points="230.09,-82 240.09,-78.5 230.09,-75 230.09,-82"/>
</g>
<!-- _comp_AND_comp_NOT_comp_NAND -->
<g id="node18" class="node">
<title>_comp_AND_comp_NOT_comp_NAND</title>
<polygon fill="#ccccff" stroke="black" points="381,-96.5 326,-96.5 326,-60.5 381,-60.5 381,-96.5"/>
<text text-anchor="middle" x="353.5" y="-73.45" font-family="Times New Roman,serif" font-size="14.00">NAND</text>
</g>
<!-- _comp_AND_comp_NOT_in_IN&#45;&gt;_comp_AND_comp_NOT_comp_NAND -->
<g id="edge10" class="edge">
<title>_comp_AND_comp_NOT_in_IN&#45;&gt;_comp_AND_comp_NOT_comp_NAND</title>
<path fill="none" stroke="black" d="M282.81,-72.82C292.05,-71.94 303.44,-71.6 314.32,-71.81"/>
<polygon fill="black" stroke="black" points="314.16,-75.31 324.29,-72.2 314.43,-68.31 314.16,-75.31"/>
</g>
<!-- _comp_AND_comp_NOT_in_IN&#45;&gt;_comp_AND_comp_NOT_comp_NAND -->
<g id="edge11" class="edge">
<title>_comp_AND_comp_NOT_in_IN&#45;&gt;_comp_AND_comp_NOT_comp_NAND</title>
<path fill="none" stroke="black" d="M282.81,-84.18C292.05,-85.06 303.44,-85.4 314.32,-85.19"/>
<polygon fill="black" stroke="black" points="314.43,-88.69 324.29,-84.8 314.16,-81.69 314.43,-88.69"/>
</g>
<!-- _comp_AND_comp_NOT_out_OUT -->
<g id="node17" class="node">
<title>_comp_AND_comp_NOT_out_OUT</title>
<ellipse fill="#ffaaaa" stroke="black" cx="446.86" cy="-78.5" rx="29.86" ry="29.86"/>
<text text-anchor="middle" x="446.86" y="-73.45" font-family="Times New Roman,serif" font-size="14.00">OUT</text>
</g>
<!-- _comp_AND_comp_NOT_out_OUT&#45;&gt;_comp_AND_out_OUT -->
<g id="edge15" class="edge">
<title>_comp_AND_comp_NOT_out_OUT&#45;&gt;_comp_AND_out_OUT</title>
<path fill="none" stroke="black" d="M476.99,-78.5C484.57,-78.5 492.88,-78.5 500.94,-78.5"/>
<polygon fill="black" stroke="black" points="500.93,-82 510.93,-78.5 500.93,-75 500.93,-82"/>
</g>
<!-- _comp_AND_comp_NOT_comp_NAND&#45;&gt;_comp_AND_comp_NOT_out_OUT -->
<g id="edge12" class="edge">
<title>_comp_AND_comp_NOT_comp_NAND&#45;&gt;_comp_AND_comp_NOT_out_OUT</title>
<path fill="none" stroke="black" d="M381.42,-78.5C388.84,-78.5 397.07,-78.5 405.09,-78.5"/>
<polygon fill="black" stroke="black" points="405.07,-82 415.07,-78.5 405.07,-75 405.07,-82"/>
</g>
</g>
</svg>
